<svg width="30" height="30" viewBox="0 0 30 30" fill="none" xmlns="http://www.w3.org/2000/svg">
<path d="M15 30C23.2843 30 30 23.2843 30 15C30 6.71573 23.2843 0 15 0C6.71573 0 0 6.71573 0 15C0 23.2843 6.71573 30 15 30Z" fill="#2E4186"/>
<path d="M22.3022 8.90668C22.2445 8.74002 22.1756 8.69336 22.0689 8.65336C21.8356 8.56447 21.44 8.69779 21.44 8.69779C21.44 8.69779 7.42003 13.7378 6.62003 14.2956C6.44669 14.4156 6.38892 14.4845 6.36225 14.5667C6.22447 14.9645 6.65558 15.14 6.65558 15.14L10.2689 16.3178C10.2689 16.3178 10.4045 16.3378 10.4511 16.3067C11.2734 15.7867 18.7222 11.0845 19.1511 10.9267C19.22 10.9067 19.2689 10.9289 19.2556 10.9756C19.0845 11.58 12.6156 17.3289 12.6156 17.3289C12.6156 17.3289 12.5911 17.36 12.5756 17.3956L12.5667 17.3911L12.2289 20.9756C12.2289 20.9756 12.0867 22.0733 13.1867 20.9756C13.9622 20.2 14.7111 19.5534 15.0867 19.2378C16.3289 20.0956 17.6667 21.0445 18.2422 21.54C18.5311 21.7889 18.7756 21.8289 18.9734 21.8222C19.52 21.8022 19.6734 21.2 19.6734 21.2C19.6734 21.2 22.2289 10.9178 22.3134 9.54002C22.3223 9.40447 22.3334 9.32002 22.3334 9.22668C22.3334 9.09779 22.3222 8.96891 22.3022 8.90668Z" fill="white"/>
</svg>
