<svg width="30" height="30" viewBox="0 0 30 30" fill="none" xmlns="http://www.w3.org/2000/svg">
<path d="M15 30C23.2843 30 30 23.2843 30 15C30 6.71573 23.2843 0 15 0C6.71573 0 0 6.71573 0 15C0 23.2843 6.71573 30 15 30Z" fill="white"/>
<path fill-rule="evenodd" clip-rule="evenodd" d="M22.216 7.96906C20.4205 6.17129 18.0294 5.18018 15.4849 5.18018C10.2405 5.18018 5.9716 9.44684 5.96938 14.6913C5.96938 16.3668 6.40716 18.0046 7.24049 19.4468L5.8916 24.3757L10.936 23.0535C12.3249 23.8113 13.8916 24.2113 15.4827 24.2113H15.4872C20.7316 24.2113 25.0005 19.9446 25.0027 14.698C25.0027 12.1557 24.0138 9.76684 22.2183 7.96906H22.216ZM15.4849 22.6046H15.4827C14.0627 22.6046 12.6716 22.2224 11.4583 21.5024L11.1694 21.3313L8.17605 22.1157L8.97605 19.198L8.78716 18.898C7.99605 17.6402 7.57827 16.1846 7.57827 14.6913C7.57827 10.3313 11.1272 6.78462 15.4916 6.78462C17.6049 6.78462 19.5894 7.60906 21.0827 9.1024C22.576 10.598 23.3983 12.5824 23.396 14.6957C23.396 19.0557 19.8472 22.6024 15.4872 22.6024L15.4849 22.6046ZM19.8227 16.6824C19.5849 16.5624 18.416 15.9891 18.1983 15.9091C17.9805 15.8291 17.8227 15.7891 17.6627 16.0291C17.5049 16.2668 17.0494 16.8024 16.9094 16.9602C16.7716 17.118 16.6316 17.138 16.3938 17.0202C16.156 16.9002 15.3894 16.6513 14.4827 15.8402C13.776 15.2091 13.2983 14.4313 13.1605 14.1935C13.0227 13.9557 13.1449 13.8268 13.2649 13.7091C13.3716 13.6024 13.5027 13.4313 13.6205 13.2935C13.7383 13.1557 13.7783 13.0557 13.8583 12.898C13.9383 12.7402 13.8983 12.6002 13.8383 12.4824C13.7783 12.3624 13.3027 11.1935 13.1049 10.718C12.9116 10.2535 12.716 10.318 12.5694 10.3091C12.4316 10.3024 12.2716 10.3002 12.1138 10.3002C11.956 10.3002 11.6983 10.3602 11.4805 10.598C11.2627 10.8357 10.6494 11.4113 10.6494 12.5802C10.6494 13.7491 11.5005 14.8802 11.6205 15.038C11.7383 15.1957 13.2961 17.598 15.6827 18.6268C16.2494 18.8713 16.6938 19.018 17.0383 19.1268C17.6072 19.3068 18.1272 19.2824 18.536 19.2202C18.9938 19.1513 19.9427 18.6446 20.1405 18.0891C20.3383 17.5335 20.3383 17.058 20.2783 16.958C20.2183 16.858 20.0605 16.8002 19.8227 16.6802V16.6824Z" fill="#131D40"/>
</svg>
