<svg width="30" height="30" viewBox="0 0 30 30" fill="none" xmlns="http://www.w3.org/2000/svg">
<path d="M15 30C23.2843 30 30 23.2843 30 15C30 6.71573 23.2843 0 15 0C6.71573 0 0 6.71573 0 15C0 23.2843 6.71573 30 15 30Z" fill="#2E4186"/>
<path fill-rule="evenodd" clip-rule="evenodd" d="M22.2157 7.96906C20.4201 6.17129 18.029 5.18018 15.4846 5.18018C10.2401 5.18018 5.97124 9.44684 5.96901 14.6913C5.96901 16.3668 6.40679 18.0046 7.24013 19.4468L5.89124 24.3757L10.9357 23.0535C12.3246 23.8113 13.8912 24.2113 15.4823 24.2113H15.4868C20.7312 24.2113 25.0001 19.9446 25.0023 14.698C25.0023 12.1557 24.0135 9.76684 22.2179 7.96906H22.2157ZM15.4846 22.6046H15.4823C14.0623 22.6046 12.6712 22.2224 11.4579 21.5024L11.169 21.3313L8.17568 22.1157L8.97568 19.198L8.78679 18.898C7.99568 17.6402 7.5779 16.1846 7.5779 14.6913C7.5779 10.3313 11.1268 6.78462 15.4912 6.78462C17.6046 6.78462 19.589 7.60906 21.0823 9.1024C22.5757 10.598 23.3979 12.5824 23.3957 14.6957C23.3957 19.0557 19.8468 22.6024 15.4868 22.6024L15.4846 22.6046ZM19.8224 16.6824C19.5846 16.5624 18.4157 15.9891 18.1979 15.9091C17.9801 15.8291 17.8223 15.7891 17.6623 16.0291C17.5046 16.2668 17.049 16.8024 16.909 16.9602C16.7712 17.118 16.6312 17.138 16.3934 17.0202C16.1557 16.9002 15.389 16.6513 14.4823 15.8402C13.7757 15.2091 13.2979 14.4313 13.1601 14.1935C13.0223 13.9557 13.1446 13.8268 13.2646 13.7091C13.3712 13.6024 13.5023 13.4313 13.6201 13.2935C13.7379 13.1557 13.7779 13.0557 13.8579 12.898C13.9379 12.7402 13.8979 12.6002 13.8379 12.4824C13.7779 12.3624 13.3023 11.1935 13.1046 10.718C12.9112 10.2535 12.7157 10.318 12.569 10.3091C12.4312 10.3024 12.2712 10.3002 12.1135 10.3002C11.9557 10.3002 11.6979 10.3602 11.4801 10.598C11.2623 10.8357 10.649 11.4113 10.649 12.5802C10.649 13.7491 11.5001 14.8802 11.6201 15.038C11.7379 15.1957 13.2957 17.598 15.6824 18.6268C16.249 18.8713 16.6935 19.018 17.0379 19.1268C17.6068 19.3068 18.1268 19.2824 18.5357 19.2202C18.9935 19.1513 19.9423 18.6446 20.1401 18.0891C20.3379 17.5335 20.3379 17.058 20.2779 16.958C20.2179 16.858 20.0601 16.8002 19.8224 16.6802V16.6824Z" fill="white"/>
</svg>
