<svg width="388" height="124" viewBox="0 0 388 124" fill="none" xmlns="http://www.w3.org/2000/svg">
<path fill-rule="evenodd" clip-rule="evenodd" d="M95.5696 87.1497C98.3033 87.0403 101.037 86.931 103.88 86.7123C110.331 86.3843 113.284 86.4936 117.33 82.8851C121.266 79.386 121.485 75.0121 121.048 69.8728C120.61 64.6241 120.063 59.3754 119.517 54.1268C118.861 48.1127 118.97 44.1761 115.143 41.2238C113.393 39.9116 111.316 39.1462 108.582 39.4742C106.832 39.6929 103.115 40.2396 101.474 40.677C105.52 42.0985 109.675 40.7864 112.3 44.0668C113.721 45.9257 113.284 47.3472 113.065 49.8622L111.316 69.3261C110.769 75.6682 111.753 74.5747 102.677 74.1373C92.3985 73.7 85.7283 72.3878 80.4796 79.386C77.9646 82.7758 77.6366 85.5095 77.6366 90.4301C77.6366 92.3984 77.6366 103.442 77.4179 104.427L52.268 104.973C51.6119 103.442 50.8465 91.8516 50.7371 89.2273C49.6437 71.4037 53.0334 64.6241 68.5608 55.3296C65.0616 55.3296 58.1728 58.1726 55.6578 59.5941C42.5361 67.1391 40.4585 79.8234 39.8024 95.5694C39.5837 100.709 38.8183 106.942 41.1145 111.206C42.8641 114.487 46.4726 117.658 51.1745 118.423C53.4708 118.751 64.7336 118.86 67.9047 118.97C73.044 119.079 79.2768 119.735 83.5414 117.658C87.1498 116.017 90.2115 112.628 91.4144 108.254C92.3985 104.645 91.8518 95.8975 91.7424 91.6329C91.5237 86.2749 90.7583 87.3684 95.5696 87.1497Z" fill="#2E4186"/>
<path fill-rule="evenodd" clip-rule="evenodd" d="M42.5361 47.5661C43.8482 46.6913 44.395 45.9258 46.1445 44.6137C47.4567 43.6296 48.7689 42.9735 50.2997 42.0987C51.1745 40.3491 51.9399 39.365 52.4867 36.9594C53.1428 34.007 52.7054 26.0246 52.4867 22.6349C52.4867 21.6507 51.9399 16.6207 52.4867 16.1834C52.9241 15.9647 72.9347 14.2151 75.559 13.8871C77.8553 13.6684 79.0581 13.231 80.6983 14.6525C83.104 16.9488 82.5572 24.6031 84.5255 29.6331C85.5096 26.462 86.1657 21.6507 86.6031 18.261C87.3685 13.559 85.947 11.044 83.5414 8.52903C81.1357 6.12339 77.6366 5.79534 73.372 5.35795C69.3262 4.92056 65.2803 4.59252 61.1251 4.26448C53.1428 3.6084 46.1445 2.18688 40.8959 9.8412C38.0528 14.1057 38.4902 21.3227 38.3809 27.2274C38.3809 28.7583 38.4902 32.4761 38.1622 33.6789C33.4602 33.6789 28.8676 33.7883 24.1657 34.007C19.2451 34.2257 16.5114 34.4444 13.1216 36.85C10.8253 38.4902 8.41966 41.552 7.76357 45.7072C7.10749 49.5343 9.07574 67.0299 9.62248 71.8412C10.1692 76.6525 11.1533 79.1675 14.1057 81.4638C17.6048 84.1975 20.7759 83.6507 25.5872 82.8853C27.8835 82.5573 35.8659 81.2451 37.2874 80.4796C33.5696 79.8236 29.8518 78.9488 26.0246 78.402C21.432 77.746 18.0422 78.074 18.6983 72.6066C19.0264 69.8729 20.5572 48.3315 20.7759 48.0035C21.104 47.5661 22.9629 47.8941 23.5096 47.8941C28.6489 48.1128 38.2715 48.5502 42.5361 47.5661Z" fill="#2E4186"/>
<path fill-rule="evenodd" clip-rule="evenodd" d="M46.0353 44.3948C44.067 45.9256 43.4109 46.6911 42.0988 48.3313C41.224 49.4247 40.7866 50.2995 40.1305 51.6117C37.2875 57.5164 38.5997 63.2025 40.4586 68.6699C41.224 67.3577 41.224 60.7969 44.8325 56.3136C51.3933 48.1126 62.7654 51.8304 72.4974 50.6276C79.8236 49.7528 80.5891 48.3313 85.4004 46.8004C85.1817 51.1743 84.6349 55.9856 83.3228 59.8127C81.6825 64.1866 80.0423 65.9362 76.8713 68.1231C72.388 71.2942 67.2487 73.6999 61.672 75.2307C60.2505 75.5588 56.5326 76.1055 55.5485 76.5429C55.7672 76.7616 55.6579 76.6523 55.9859 76.8709C60.2505 78.9486 68.7796 79.1672 73.3721 78.4018C78.8395 77.527 84.6349 75.3401 88.0247 72.4971C98.4127 63.7493 101.037 46.363 99.3968 32.9133C99.0688 29.9609 97.3192 27.8833 95.1323 26.8992C89.7743 24.6029 87.0406 28.9768 81.3545 32.4759C71.2945 38.7087 67.2487 37.5059 57.6261 39.4741C56.3139 39.8022 54.6737 40.1302 53.4709 40.5676C50.8466 41.4424 48.2222 42.6452 46.0353 44.3948Z" fill="#2E4186"/>
<path fill-rule="evenodd" clip-rule="evenodd" d="M131.764 84.1976V78.6209C136.466 80.9172 140.73 82.0107 144.667 82.0107C146.307 82.0107 147.838 81.6826 149.259 81.1359C150.681 80.4798 151.884 79.605 152.649 78.5115C153.415 77.4181 153.743 76.1059 153.743 74.6844C153.743 73.0442 153.196 71.6226 152.212 70.2011C151.118 68.7796 149.259 67.2487 146.307 65.6085L143.245 63.859L140.184 62.1094C134.826 58.9383 132.201 55.0018 132.201 50.2999C132.201 46.8008 133.404 43.9577 135.81 41.5521C138.215 39.2558 141.933 38.053 146.963 38.053C150.244 38.053 153.415 38.4904 156.476 39.4745V44.6138C153.087 43.3017 149.806 42.6456 146.635 42.6456C144.12 42.6456 142.042 43.3017 140.512 44.6138C138.981 45.926 138.215 47.5662 138.215 49.4251C138.215 51.284 138.871 52.8149 139.965 54.1271C141.168 55.3299 142.699 56.5327 144.557 57.5168L146.854 58.9383L149.697 60.6879L152.102 62.1094C157.132 65.1711 159.647 68.9983 159.647 73.7002C159.647 77.1994 158.335 80.2611 155.82 82.7761C153.196 85.2911 149.15 86.6032 143.464 86.6032C141.605 86.6032 139.965 86.4939 138.325 86.1659C136.575 85.7285 134.497 85.0724 131.764 84.1976Z" fill="#2E4186"/>
<path fill-rule="evenodd" clip-rule="evenodd" d="M170.145 85.0722H164.458L178.564 39.1462H184.578L198.794 85.0722H192.451L189.28 75.0122H173.097L170.145 85.0722ZM174.628 70.4196H187.968L182.501 53.0334L181.189 48.4408L179.986 53.0334L174.628 70.4196Z" fill="#2E4186"/>
<path fill-rule="evenodd" clip-rule="evenodd" d="M208.854 85.0724H203.386V39.2559H208.744L225.037 69.7638L226.787 74.3564H226.896L226.787 69.7638V39.2559H232.254V85.0724H226.787L210.931 55.1112L208.744 50.2999L208.854 55.0019V85.0724Z" fill="#2E4186"/>
<path fill-rule="evenodd" clip-rule="evenodd" d="M242.642 85.0722H236.956L251.062 39.1462H257.076L271.291 85.0722H264.949L261.778 75.0122H245.594L242.642 85.0722ZM247.234 70.4196H260.575L255.107 53.0334L253.795 48.4408L252.592 53.0334L247.234 70.4196Z" fill="#2E4186"/>
<path fill-rule="evenodd" clip-rule="evenodd" d="M287.365 85.0724V44.2858H273.697V39.2559H307.048V44.2858H293.379V85.0724H287.365Z" fill="#2E4186"/>
<path fill-rule="evenodd" clip-rule="evenodd" d="M339.305 80.0424V85.0724H314.483V39.2559H338.758V43.8484H320.497V59.4851H337.009V64.0777H320.497V80.0424H339.305Z" fill="#2E4186"/>
<path fill-rule="evenodd" clip-rule="evenodd" d="M352.427 85.0724H346.194L359.644 61.1253L347.506 39.2559H354.286L363.033 55.1112L372 39.2559H378.233L366.205 60.688L379.654 85.0724H372.765L362.705 66.8114L352.427 85.0724Z" fill="#2E4186"/>
</svg>
